<svg width="26" height="34" viewBox="0 0 26 34" fill="none" xmlns="http://www.w3.org/2000/svg">
<path d="M23.0969 24.3038L17.7172 21.5974C17.2098 21.3418 16.8944 20.8284 16.8944 20.2572V18.3413C17.0234 18.1826 17.1591 18.0019 17.2993 17.8024C17.9971 16.8107 18.5563 15.7069 18.9628 14.5163C19.7574 14.1497 20.2733 13.3592 20.2733 12.4667V10.2C20.2733 9.6543 20.0706 9.1256 19.7101 8.7125V5.6984C19.7417 5.38673 19.8656 3.53147 18.532 2.0009C17.3753 0.6732 15.4984 0 12.9524 0C10.4064 0 8.52942 0.6732 7.37272 2.00033C6.03919 3.5309 6.16308 5.38673 6.19462 5.6984V8.7125C5.8342 9.1256 5.63147 9.6543 5.63147 10.2V12.4667C5.63147 13.1563 5.94289 13.7995 6.4745 14.2284C6.99034 16.2837 8.0699 17.8324 8.4472 18.3294V20.2045C8.4472 20.753 8.14986 21.2562 7.67175 21.5192L2.64792 24.2766C1.01423 25.1736 0 26.8929 0 28.7651V30.6C0 33.2894 8.47255 34 12.9524 34C17.4322 34 25.9048 33.2894 25.9048 30.6V28.8756C25.9048 26.9274 24.8286 25.1753 23.0969 24.3038Z" fill="#C4C4C4"/>
</svg>
