<svg width="98" height="20" viewBox="0 0 98 20" fill="none" xmlns="http://www.w3.org/2000/svg">
<g clip-path="url(#clip0_1_1479)">
<path d="M20.1536 12.4208C18.7871 17.7779 13.2354 21.0381 7.7535 19.7022C2.27381 18.3666 -1.06203 12.9404 0.305175 7.58365C1.6711 2.22592 7.22274 -1.03465 12.7031 0.300953C18.1847 1.63656 21.5202 7.06335 20.1536 12.4208Z" fill="#F7931A"/>
<path d="M14.7408 8.5767C14.9445 7.2461 13.9079 6.5308 12.4905 6.05362L12.9503 4.25114L11.8277 3.97771L11.38 5.73268C11.0849 5.66081 10.7818 5.593 10.4806 5.52581L10.9314 3.75927L9.80948 3.48584L9.34938 5.28768C9.10509 5.23331 8.86529 5.17957 8.63252 5.12301L8.6338 5.11738L7.08563 4.73957L6.78699 5.91142C6.78699 5.91142 7.61991 6.09799 7.60233 6.10955C8.05699 6.22048 8.13916 6.51454 8.12541 6.74766L7.60168 8.80107C7.63302 8.80888 7.67363 8.82013 7.71839 8.83763C7.68098 8.82857 7.64102 8.81857 7.59977 8.80888L6.86564 11.6854C6.81001 11.8204 6.66901 12.0229 6.35119 11.946C6.36238 11.962 5.53521 11.747 5.53521 11.747L4.97791 13.0029L6.43879 13.3588C6.71057 13.4254 6.97691 13.4951 7.2391 13.5607L6.77452 15.3838L7.89585 15.6572L8.35595 13.8535C8.66226 13.9347 8.95962 14.0097 9.25058 14.0804L8.79208 15.8756L9.91468 16.1491L10.3793 14.3294C12.2935 14.6835 13.733 14.5407 14.3389 12.8485C14.8271 11.486 14.3146 10.7001 13.3074 10.1876C14.0409 10.0223 14.5934 9.55075 14.7408 8.5767ZM12.1759 12.092C11.829 13.4544 9.48175 12.7179 8.72077 12.5332L9.33723 10.1179C10.0982 10.3035 12.5385 10.671 12.1759 12.092ZM12.5231 8.55701C12.2066 9.79637 10.253 9.16669 9.61923 9.01232L10.1781 6.82173C10.8119 6.9761 12.8528 7.26422 12.5231 8.55701Z" fill="white"/>
<path d="M29.9828 6.05155C30.8125 6.05155 31.5293 6.19686 32.1317 6.48217C32.737 6.77029 33.2364 7.15841 33.637 7.64653C34.0322 8.13715 34.3264 8.71057 34.5163 9.36775C34.705 10.0268 34.7996 10.7352 34.7996 11.4937C34.7996 12.6586 34.5812 13.7592 34.1403 14.7967C33.6994 15.8358 33.1012 16.737 32.3402 17.5057C31.5798 18.2735 30.682 18.8789 29.6467 19.326C28.613 19.7735 27.4891 19.9973 26.2824 19.9973C26.1264 19.9973 25.852 19.9929 25.4645 19.9851C25.077 19.9773 24.6316 19.9382 24.1328 19.8723C23.6308 19.8038 23.1001 19.7026 22.5395 19.567C21.9794 19.4338 21.4473 19.2473 20.9463 19.0104L25.4265 0.611956L29.4392 0.00415039L27.8351 6.53311C28.1785 6.38187 28.5244 6.26467 28.8697 6.17936C29.2154 6.0953 29.5863 6.05155 29.9828 6.05155ZM26.6169 16.8861C27.2212 16.8861 27.7906 16.7408 28.3255 16.4555C28.8621 16.1698 29.325 15.7842 29.7129 15.3039C30.1007 14.8214 30.4077 14.278 30.6315 13.6708C30.8553 13.0636 30.9685 12.4302 30.9685 11.7712C30.9685 10.9615 30.8301 10.3299 30.5541 9.87337C30.2782 9.41869 29.7676 9.18994 29.0261 9.18994C28.7831 9.18994 28.4701 9.23525 28.0819 9.31619C27.6925 9.40212 27.3439 9.58056 27.0316 9.849L25.3235 16.7826C25.4265 16.8004 25.5176 16.8173 25.5953 16.8333C25.6714 16.8505 25.7555 16.8626 25.8392 16.8711C25.9278 16.8808 26.0292 16.8858 26.1516 16.8858C26.2741 16.8858 26.4273 16.8861 26.6169 16.8861Z" fill="#303030"/>
<path d="M38.961 19.6453H35.1283L38.365 6.33394H42.2239L38.961 19.6453ZM40.826 4.71209C40.2911 4.71209 39.8061 4.55647 39.3757 4.2446C38.9418 3.9346 38.727 3.45742 38.727 2.81431C38.727 2.46056 38.8005 2.12869 38.9463 1.81557C39.0943 1.50307 39.2878 1.23402 39.5301 1.00527C39.7722 0.7784 40.0526 0.597149 40.3711 0.460589C40.6914 0.326216 41.0323 0.259033 41.3955 0.259033C41.9301 0.259033 42.4126 0.414656 42.8446 0.726527C43.2749 1.03996 43.4914 1.51714 43.4914 2.15682C43.4914 2.51181 43.4182 2.84493 43.2711 3.15742C43.125 3.46992 42.9315 3.73897 42.6892 3.96772C42.449 4.1949 42.1661 4.37553 41.8482 4.51084C41.5276 4.6474 41.188 4.71209 40.826 4.71209Z" fill="#303030"/>
<path d="M45.5828 3.01723L49.5971 2.40942L48.6114 6.33311H52.9106L52.1343 9.41994H47.861L46.7227 14.0761C46.6178 14.4642 46.5583 14.8267 46.5417 15.1636C46.5229 15.502 46.5667 15.7927 46.6703 16.0373C46.7732 16.2826 46.9583 16.4717 47.2269 16.6055C47.4942 16.7414 47.8769 16.8098 48.3789 16.8098C48.7924 16.8098 49.1952 16.7714 49.5847 16.6951C49.9719 16.6201 50.3642 16.5158 50.7613 16.3792L51.0472 19.2654C50.5292 19.451 49.9684 19.6107 49.3641 19.7451C48.7588 19.8813 48.0423 19.947 47.2141 19.947C46.0234 19.947 45.1003 19.7742 44.4426 19.4301C43.7859 19.0835 43.3216 18.6101 43.0438 18.0107C42.7698 17.4136 42.6473 16.7251 42.6815 15.9495C42.717 15.172 42.8369 14.3549 43.0438 13.4943L45.5828 3.01723Z" fill="#303030"/>
<path d="M52.7418 14.3296C52.7418 13.1831 52.9317 12.1019 53.3112 11.0897C53.6901 10.0766 54.2359 9.19064 54.9442 8.43034C55.6498 7.67379 56.5096 7.07442 57.5216 6.63443C58.5287 6.19694 59.6565 5.97632 60.8993 5.97632C61.6772 5.97632 62.372 6.0482 62.9834 6.19226C63.5972 6.33757 64.1526 6.52538 64.6549 6.761L63.3331 9.69845C62.9878 9.56158 62.6294 9.44095 62.2588 9.33158C61.8879 9.22002 61.4352 9.16627 60.8996 9.16627C59.6203 9.16627 58.609 9.5972 57.8563 10.4562C57.1065 11.3159 56.7289 12.4731 56.7289 13.9246C56.7289 14.7849 56.9189 15.4805 57.3 16.0127C57.6792 16.5449 58.3797 16.8096 59.3968 16.8096C59.8988 16.8096 60.3832 16.7583 60.8472 16.6583C61.3146 16.5571 61.7274 16.4296 62.091 16.279L62.3771 19.2902C61.8924 19.4739 61.3578 19.6399 60.7714 19.7852C60.1837 19.9255 59.4841 19.9983 58.6729 19.9983C57.6021 19.9983 56.6957 19.8452 55.9542 19.5436C55.2124 19.2374 54.5995 18.8308 54.1167 18.3158C53.6313 17.7996 53.2828 17.1968 53.0673 16.5049C52.8518 15.8137 52.7418 15.0874 52.7418 14.3296Z" fill="#303030"/>
<path d="M69.7679 19.9983C68.8531 19.9983 68.0585 19.862 67.3845 19.5924C66.7124 19.3227 66.1558 18.9442 65.7155 18.4536C65.2746 17.9655 64.9446 17.3871 64.7186 16.7205C64.4925 16.0543 64.3838 15.3165 64.3838 14.5081C64.3838 13.494 64.5504 12.4803 64.8871 11.4694C65.2221 10.4562 65.7193 9.54595 66.3774 8.73691C67.0303 7.92661 67.8357 7.26411 68.784 6.74755C69.7314 6.23444 70.8211 5.97632 72.0451 5.97632C72.9432 5.97632 73.7336 6.11287 74.4169 6.38256C75.0969 6.65162 75.6571 7.03318 76.1 7.52129C76.538 8.01191 76.8709 8.58784 77.0947 9.25533C77.3201 9.92032 77.4314 10.66 77.4314 11.469C77.4314 12.48 77.267 13.4937 76.9409 14.5077C76.6144 15.5168 76.13 16.4293 75.4906 17.2402C74.8524 18.0493 74.0543 18.7114 73.0957 19.2258C72.1384 19.7402 71.0283 19.9983 69.7679 19.9983ZM71.6834 9.16659C71.1153 9.16659 70.6129 9.32783 70.1829 9.64626C69.7512 9.96844 69.3887 10.3734 69.0964 10.8619C68.801 11.3525 68.582 11.8875 68.4339 12.469C68.2872 13.0518 68.2152 13.6028 68.2152 14.1262C68.2152 14.9709 68.3546 15.6287 68.6286 16.1021C68.9065 16.573 69.4056 16.8099 70.1311 16.8099C70.7012 16.8099 71.2009 16.6499 71.6336 16.328C72.0626 16.0084 72.4255 15.603 72.72 15.1137C73.0135 14.6256 73.2345 14.089 73.3825 13.5065C73.5274 12.9256 73.6012 12.3715 73.6012 11.849C73.6012 11.0066 73.4625 10.3472 73.1859 9.87438C72.9096 9.40345 72.4083 9.16659 71.6834 9.16659Z" fill="#303030"/>
<path d="M81.6078 19.6453H77.7719L81.0086 6.33394H84.8695L81.6078 19.6453ZM83.47 4.71209C82.9354 4.71209 82.4506 4.55647 82.0209 4.2446C81.5893 3.9346 81.3725 3.45742 81.3725 2.81431C81.3725 2.46056 81.447 2.12869 81.5931 1.81557C81.7392 1.50307 81.9339 1.23402 82.1763 1.00527C82.4171 0.7784 82.7 0.597149 83.0179 0.460589C83.3363 0.326216 83.6771 0.259033 84.0391 0.259033C84.575 0.259033 85.0591 0.414656 85.4901 0.726527C85.9214 1.03996 86.1392 1.51714 86.1392 2.15682C86.1392 2.51181 86.0618 2.84493 85.9169 3.15742C85.7721 3.46992 85.5774 3.73897 85.336 3.96772C85.093 4.1949 84.8135 4.37553 84.495 4.51084C84.174 4.6474 83.8338 4.71209 83.47 4.71209Z" fill="#303030"/>
<path d="M87.6317 6.93903C87.9226 6.85591 88.2475 6.75591 88.6008 6.64716C88.9554 6.53841 89.3516 6.43717 89.7941 6.34592C90.2318 6.25186 90.7258 6.17561 91.269 6.11655C91.8123 6.05624 92.4313 6.02686 93.119 6.02686C95.1404 6.02686 96.5338 6.60217 97.3031 7.74934C98.0718 8.89651 98.2048 10.4665 97.706 12.4564L95.943 19.6438H92.085L93.7937 12.6077C93.8979 12.1683 93.9798 11.7436 94.0402 11.3286C94.1013 10.9174 94.0978 10.5549 94.0265 10.2412C93.9584 9.93118 93.7978 9.67743 93.5488 9.48087C93.2958 9.28743 92.9138 9.19025 92.3955 9.19025C91.8957 9.19025 91.3873 9.24275 90.8684 9.344L88.3562 19.6435H84.4966L87.6317 6.93903Z" fill="#303030"/>
</g>
<defs>
<clipPath id="clip0_1_1479">
<rect width="98" height="20" fill="white"/>
</clipPath>
</defs>
</svg>
