<svg width="26" height="26" viewBox="0 0 26 26" fill="none" xmlns="http://www.w3.org/2000/svg">
<path d="M9.05636 9.05631V16.9437H16.9437V9.05631H9.05636ZM15.3354 15.3354H10.6646V10.6646H15.3354V15.3354Z" fill="#DC2E3F"/>
<path d="M26 7.60937H21.0388V4.96123H18.377V0H16.7687V4.96123H13.8041V0H12.1959V4.96123H9.23129V0H7.62304V4.96123H4.96123V7.60937H0V9.21762H4.96123V12.1822H0V13.7905H4.96123V16.755H0V18.3633H4.96123V21.0387H7.62304V26H9.23129V21.0388H12.1959V26H13.8041V21.0388H16.7687V26H18.377V21.0388H21.0388V18.3633H26V16.7551H21.0388V13.7905H26V12.1823H21.0388V9.21767H26V7.60937ZM19.4305 19.4305H6.56948V6.56948H19.4305V19.4305Z" fill="#DC2E3F"/>
</svg>
