<svg width="17" height="17" viewBox="0 0 17 17" fill="none" xmlns="http://www.w3.org/2000/svg">
<path d="M16.2842 6.22128H0.95447C0.614648 6.22128 0.350342 6.47447 0.350342 6.8V15.3C0.350342 16.2404 1.14326 17 2.12497 17H15.1137C16.0954 17 16.8884 16.2404 16.8884 15.3V6.8C16.8884 6.47447 16.624 6.22128 16.2842 6.22128ZM5.67422 14.1426C5.67422 14.4681 5.40992 14.7213 5.07009 14.7213H3.8996C3.55977 14.7213 3.29547 14.4681 3.29547 14.1426V13.0213C3.29547 12.6957 3.55977 12.4426 3.8996 12.4426H5.07009C5.40992 12.4426 5.67422 12.6957 5.67422 13.0213V14.1426ZM9.78985 14.1426C9.78985 14.4681 9.52554 14.7213 9.18572 14.7213H8.01522C7.6754 14.7213 7.41109 14.4681 7.41109 14.1426V13.0213C7.41109 12.6957 7.6754 12.4426 8.01522 12.4426H9.18572C9.52554 12.4426 9.78985 12.6957 9.78985 13.0213V14.1426ZM9.78985 10.2C9.78985 10.5255 9.52554 10.7787 9.18572 10.7787H8.01522C7.6754 10.7787 7.41109 10.5255 7.41109 10.2V9.07872C7.41109 8.75319 7.6754 8.5 8.01522 8.5H9.18572C9.52554 8.5 9.78985 8.75319 9.78985 9.07872V10.2ZM13.9432 10.2C13.9432 10.5255 13.6789 10.7787 13.3391 10.7787H12.1686C11.8288 10.7787 11.5645 10.5255 11.5645 10.2V9.07872C11.5645 8.75319 11.8288 8.5 12.1686 8.5H13.3391C13.6789 8.5 13.9432 8.75319 13.9432 9.07872V10.2ZM15.1137 1.7H13.6412V1.12128C13.6412 0.506383 13.1126 0 12.4707 0C11.8288 0 11.3002 0.506383 11.3002 1.12128V1.7H5.97629V1.12128C5.97629 0.506383 5.44767 0 4.80579 0C4.1639 0 3.63529 0.506383 3.63529 1.12128V1.7H2.12497C1.14326 1.7 0.350342 2.45957 0.350342 3.4V3.97872C0.350342 4.30426 0.614648 4.55745 0.95447 4.55745H16.322C16.6618 4.55745 16.9261 4.30426 16.9261 3.97872V3.4C16.8884 2.45957 16.0954 1.7 15.1137 1.7Z" fill="#BDBDBD"/>
</svg>
