<svg width="19" height="19" viewBox="0 0 19 19" fill="none" xmlns="http://www.w3.org/2000/svg">
<path d="M6.61811 6.61807V12.3819H12.3819V6.61807H6.61811ZM11.2066 11.2067H7.79333V7.79333H11.2066V11.2067Z" fill="#DC2E3F"/>
<path d="M19 5.56069H15.3745V3.62551H13.4293V0H12.2541V3.62551H10.0876V0H8.91237V3.62551H6.74594V0H5.57068V3.62551H3.62551V5.56069H0V6.73595H3.62551V8.90238H0V10.0776H3.62551V12.2441H0V13.4193H3.62551V15.3744H5.57068V19H6.74594V15.3745H8.91237V19H10.0876V15.3745H12.2541V19H13.4293V15.3745H15.3745V13.4194H19V12.2441H15.3745V10.0777H19V8.90242H15.3745V6.73599H19V5.56069ZM14.1992 14.1992H4.80077V4.80077H14.1992V14.1992Z" fill="#DC2E3F"/>
</svg>
