<svg width="19" height="15" viewBox="0 0 19 15" fill="none" xmlns="http://www.w3.org/2000/svg">
<path d="M18.2057 8.68498C18.2021 8.67778 15.2374 0.835718 15.2266 0.817707C14.9637 0.313394 14.445 0 13.8758 0H4.42354C3.85439 0 3.33567 0.313394 3.0727 0.817707C3.0619 0.835718 0.093658 8.67778 0.093658 8.68498C0.0360223 8.84708 0 9.02359 0 9.2037V12.6763C0 13.5156 0.684424 14.2 1.52374 14.2H16.772C17.6113 14.2 18.2957 13.5156 18.2957 12.6763V9.2037C18.2993 9.01999 18.2669 8.84708 18.2057 8.68498ZM2.47834 5.24485H3.95165C4.23262 5.24485 4.45956 5.01791 4.45956 4.73694C4.45956 4.45596 4.23262 4.22902 3.95165 4.22902H2.86377L3.24921 3.20959H5.479C5.75997 3.20959 5.98691 2.98265 5.98691 2.70167C5.98691 2.4207 5.75997 2.19376 5.479 2.19376H3.63465L3.98407 1.26438C4.07412 1.10949 4.23983 1.01583 4.42354 1.01583H13.8794C14.0595 1.01583 14.2252 1.10949 14.3189 1.26799L16.7432 7.67996H1.55977L2.47834 5.24485ZM16.7756 13.1842H1.52374C1.24277 13.1842 1.01583 12.9572 1.01583 12.6763V9.2037C1.01583 8.92273 1.24277 8.69579 1.52374 8.69579H16.772C17.053 8.69579 17.2799 8.92273 17.2799 9.2037V12.6763H17.2835C17.2835 12.9572 17.0566 13.1842 16.7756 13.1842Z" fill="#DC2E3F"/>
<path d="M9.97818 10.4321H2.4243C2.14333 10.4321 1.91639 10.659 1.91639 10.94C1.91639 11.221 2.14333 11.4479 2.4243 11.4479H9.97818C10.2592 11.4479 10.4861 11.221 10.4861 10.94C10.4861 10.659 10.2592 10.4321 9.97818 10.4321Z" fill="#DC2E3F"/>
<path d="M15.875 10.4321H15.097C14.816 10.4321 14.589 10.659 14.589 10.94C14.589 11.221 14.816 11.4479 15.097 11.4479H15.875C16.156 11.4479 16.383 11.221 16.383 10.94C16.383 10.659 16.156 10.4321 15.875 10.4321Z" fill="#DC2E3F"/>
<path d="M12.8239 10.4321H12.0459C11.7649 10.4321 11.5379 10.659 11.5379 10.94C11.5379 11.221 11.7649 11.4479 12.0459 11.4479H12.8239C13.1049 11.4479 13.3319 11.221 13.3319 10.94C13.3319 10.659 13.1049 10.4321 12.8239 10.4321Z" fill="#DC2E3F"/>
</svg>
