<svg width="80" height="90" viewBox="0 0 80 90" fill="none" xmlns="http://www.w3.org/2000/svg">
<g filter="url(#filter0_d_1_1523)">
<path d="M41.4122 46H38.0265C37.4609 46 37.0009 45.5213 37.0009 44.9328V36.9863H35.0256C34.46 36.9863 34 36.5074 34 35.9191V32.514C34 31.9256 34.46 31.4469 35.0256 31.4469H37.0009V29.7417C37.0009 28.051 37.5111 26.6125 38.4762 25.5821C39.4456 24.547 40.8004 24 42.3941 24L44.9762 24.0044C45.5408 24.0054 46 24.4841 46 25.0715V28.2331C46 28.8216 45.5401 29.3003 44.9748 29.3003L43.2362 29.3009C42.706 29.3009 42.571 29.4115 42.5421 29.4454C42.4946 29.5017 42.4379 29.6606 42.4379 30.0995V31.4467H44.8441C45.0252 31.4467 45.2007 31.4932 45.3516 31.5808C45.6769 31.77 45.8792 32.1276 45.8792 32.5142L45.8779 35.9193C45.8779 36.5074 45.4179 36.9861 44.8523 36.9861H42.4379V44.9328C42.4379 45.5213 41.9777 46 41.4122 46ZM38.2403 44.7103H41.1983V36.4089C41.1983 36.016 41.5056 35.6964 41.8831 35.6964H44.6384L44.6396 32.7366H41.8829C41.5054 32.7366 41.1983 32.417 41.1983 32.0241V30.0995C41.1983 29.5957 41.2475 29.0226 41.613 28.5919C42.0547 28.0713 42.7507 28.0112 43.2359 28.0112L44.7605 28.0105V25.2938L42.3931 25.2897C39.8319 25.2897 38.2403 26.9957 38.2403 29.7417V32.0241C38.2403 32.4168 37.9332 32.7366 37.5558 32.7366H35.2395V35.6964H37.5558C37.9332 35.6964 38.2403 36.016 38.2403 36.4089V44.7103Z" fill="#9B9B9B"/>
</g>
<defs>
<filter id="filter0_d_1_1523" x="0" y="0" width="80" height="90" filterUnits="userSpaceOnUse" color-interpolation-filters="sRGB">
<feFlood flood-opacity="0" result="BackgroundImageFix"/>
<feColorMatrix in="SourceAlpha" type="matrix" values="0 0 0 0 0 0 0 0 0 0 0 0 0 0 0 0 0 0 127 0" result="hardAlpha"/>
<feOffset dy="10"/>
<feGaussianBlur stdDeviation="17"/>
<feComposite in2="hardAlpha" operator="out"/>
<feColorMatrix type="matrix" values="0 0 0 0 0.4625 0 0 0 0 0.4625 0 0 0 0 0.4625 0 0 0 0.43 0"/>
<feBlend mode="normal" in2="BackgroundImageFix" result="effect1_dropShadow_1_1523"/>
<feBlend mode="normal" in="SourceGraphic" in2="effect1_dropShadow_1_1523" result="shape"/>
</filter>
</defs>
</svg>
