<svg width="108" height="20" viewBox="0 0 108 20" fill="none" xmlns="http://www.w3.org/2000/svg">
<path fill-rule="evenodd" clip-rule="evenodd" d="M0.107013 19.9582H3.07067V11.0414H7.72836V8.49401H2.6477C-0.796599 13.7573 0.107013 11.0031 0.107013 19.9582ZM0.107013 8.91823C1.06133 8.28504 2.04829 7.33909 2.58518 6.30816C3.29779 4.94009 2.99149 4.38074 3.91733 2.54876H14.5016L15.9081 0.0815021C14.717 0.0564255 13.6189 0.0285693 12.5993 0.00140301H3.69369C-0.461131 0.457658 0.107013 2.39622 0.107013 8.91823ZM28.0357 18.3784L33.5185 18.3895C35.2855 14.5444 34.0832 10.4451 36.2961 7.24576L37.656 18.3937L43.2402 18.3895L45.9073 3.04959L41.8518 3.06702C41.8567 5.98287 41.4288 11.6411 39.7681 13.5142L38.511 3.04821L33.5185 3.06702L31.0681 15.659C29.6033 3.00224 31.0605 3.06702 25.8791 3.06702L28.0357 18.3784ZM45.8184 18.3317C50.8921 18.3895 49.1349 18.6884 50.8803 14.9074H55.0469C56.7917 18.6877 55.0351 18.3895 59.9081 18.3895L55.7123 3.07537L50.1851 3.06702L45.8184 18.3317ZM52.4313 7.27779L53.6578 7.24576L54.4232 12.1078L51.5742 12.1218L52.4313 7.27779ZM85.1468 17.4547C87.0714 19.1927 91.7097 18.3895 94.631 18.3895V15.6032C89.5947 15.6032 87.7917 17.1301 87.6861 12.1211H93.9364V9.33477H87.6861C87.7674 4.36264 89.6232 5.85261 94.631 5.85261V3.06632C91.3763 3.06632 85.3073 1.71078 84.3314 5.27863C84.2647 5.52522 83.4028 15.5113 85.1468 17.4547ZM95.3262 5.85331H100.187V18.3902H103.659V5.85331H107.826V3.06702H95.3262V5.85331ZM82.8256 18.3895V15.6032H77.2699C75.8516 12.5167 76.5753 6.68641 76.5753 3.06632H73.1033C73.1033 5.98565 72.7192 13.1861 73.1088 15.5977C73.7763 19.7464 78.6944 18.3895 82.8256 18.3895ZM71.7142 18.3895C70.7439 14.3508 70.075 15.6032 65.4639 15.6032C64.0456 12.5167 64.7693 6.68641 64.7693 3.06632H61.2965C61.2972 20.3344 59.333 18.3895 71.7142 18.3895ZM10.2683 19.9582H12.809V11.8898L18.6752 20L22.123 19.9575C19.9094 16.5687 16.9263 12.5676 15.0059 9.42254L21.7827 0.057821L18.3127 0C16.8666 2.2764 14.3447 6.05321 12.6291 8.31289C11.2734 10.1003 10.3899 10.2884 10.2433 12.7139C10.1128 14.892 10.2683 17.7069 10.2683 19.9582Z" fill="url(#paint0_linear_1_1518)"/>
<defs>
<linearGradient id="paint0_linear_1_1518" x1="-2.49999" y1="-5.50002" x2="72.5" y2="8.58284e-06" gradientUnits="userSpaceOnUse">
<stop stop-color="#0886FF"/>
<stop offset="0.351801" stop-color="#823BFF"/>
<stop offset="0.403238" stop-color="#303030"/>
</linearGradient>
</defs>
</svg>
