<svg width="20" height="20" viewBox="0 0 20 20" fill="none" xmlns="http://www.w3.org/2000/svg">
<path fill-rule="evenodd" clip-rule="evenodd" d="M9.66924 0.0878379C9.8742 -0.0292793 10.1258 -0.0292793 10.3308 0.0878379L19.6641 5.42117C19.8719 5.53987 20 5.76076 20 6V6.95985C20 13.0031 15.9939 18.3141 10.1831 19.9744C10.0634 20.0085 9.93656 20.0085 9.81685 19.9744C4.00613 18.3141 0 13.0031 0 6.95985V6C0 5.76076 0.128191 5.53987 0.335908 5.42117L9.66924 0.0878379ZM9.42907 14.2809L15.1873 7.08313L14.1461 6.2502L9.23767 12.3858L5.76016 9.48785L4.90657 10.5121L9.42907 14.2809Z" fill="#DC2E3F"/>
</svg>
