<svg width="28" height="28" viewBox="0 0 28 28" fill="none" xmlns="http://www.w3.org/2000/svg">
<path d="M18.909 0H8.10384C3.63547 0 0 3.63547 0 8.10384V14.4068C0 18.7244 3.39371 22.2639 7.65362 22.4985V26.2551C7.65362 26.6769 7.99759 27.02 8.41989 27.02C8.62203 27.02 8.81292 26.9403 8.95789 26.7953L9.80249 25.9507C12.0211 23.7321 14.9705 22.5107 18.1071 22.5107H18.9085C23.3769 22.5107 27.0123 18.8752 27.0123 14.4068V8.10384C27.0128 3.63547 23.3769 0 18.909 0Z" fill="#DC2E3F"/>
<path d="M16.4109 7C15.4409 7 14.584 7.46793 14.072 8.18092C14.072 8.18092 13.8991 8.42954 13.6249 8.42954C13.3509 8.42954 13.178 8.18092 13.178 8.18092C12.6657 7.46793 11.8094 7 10.8391 7C9.27101 7 8 8.22133 8 9.72862C8 10.0845 8.0728 10.4232 8.20167 10.7349C8.99704 13.1081 12.5543 15.8981 13.6249 16C14.6957 15.8981 18.2525 13.1081 19.0483 10.7349C19.1772 10.4234 19.25 10.0845 19.25 9.72862C19.25 8.22133 17.979 7 16.4109 7Z" fill="white"/>
</svg>
