<svg width="26" height="26" viewBox="0 0 26 26" fill="none" xmlns="http://www.w3.org/2000/svg">
<path d="M13 0C7.96969 0 3.87729 4.12592 3.87729 9.19726C3.87729 11.2899 4.55757 13.2608 5.84457 14.8968C7.48594 16.9832 12.2497 21.9274 12.4517 22.1369L12.9999 22.7055L13.5482 22.137C13.7503 21.9274 18.5156 16.9821 20.1571 14.895C21.443 13.2603 22.1226 11.29 22.1226 9.19726C22.1227 4.12592 18.0303 0 13 0ZM18.9588 13.937C17.6857 15.5556 14.3254 19.1026 13 20.4901C11.675 19.103 8.31587 15.5569 7.04286 13.9387C5.97243 12.5781 5.4067 10.9385 5.4067 9.19734C5.4067 4.97613 8.81301 1.54199 13 1.54199C17.187 1.54199 20.5933 4.97613 20.5933 9.19734C20.5933 10.9386 20.0281 12.5776 18.9588 13.937Z" fill="#DC2E3F"/>
<path d="M13 3.5851C9.98538 3.5851 7.53274 6.0577 7.53274 9.09696C7.53274 12.1362 9.9853 14.6089 13 14.6089C16.0147 14.6089 18.4673 12.1363 18.4673 9.09696C18.4673 6.05778 16.0146 3.5851 13 3.5851ZM13 13.067C10.8287 13.067 9.06215 11.286 9.06215 9.09696C9.06215 6.90791 10.8287 5.12701 13 5.12701C15.1713 5.12701 16.9379 6.90791 16.9379 9.09696C16.9379 11.286 15.1713 13.067 13 13.067Z" fill="#DC2E3F"/>
<path d="M23.9425 3.40431L22.7584 4.38018C23.8625 5.74192 24.4706 7.45968 24.4706 9.21692C24.4706 10.9583 23.9054 12.5973 22.8361 13.9567L24.0345 14.9147C25.3203 13.2799 26 11.3097 26 9.21692C26 7.10497 25.2693 5.04066 23.9425 3.40431Z" fill="#DC2E3F"/>
<path d="M2.05752 3.40431C0.730677 5.04066 0 7.10497 0 9.21692C0 11.3097 0.679671 13.2799 1.96552 14.9147L3.16389 13.9566C2.09461 12.5972 1.52941 10.9583 1.52941 9.21692C1.52941 7.45968 2.13751 5.74192 3.24159 4.38018L2.05752 3.40431Z" fill="#DC2E3F"/>
<path d="M17.5882 24.4581H8.41177V26H17.5882V24.4581Z" fill="#DC2E3F"/>
</svg>
