<svg width="128" height="71" viewBox="0 0 128 71" fill="none" xmlns="http://www.w3.org/2000/svg">
<g clip-path="url(#clip0_1_4)">
<path fill-rule="evenodd" clip-rule="evenodd" d="M35.6259 22.9158C41.0465 10.8048 53.1997 2.37131 67.3298 2.37131C71.7437 2.37131 75.9618 3.19509 80.1298 4.8108C74.9916 2.19381 69.1245 0.13208 62.638 0.13208C50.4393 0.13208 39.5114 5.56176 32.2505 14.1045C31.1436 13.9179 29.8955 13.836 28.6337 13.836C12.8683 13.836 0.0910645 26.6023 0.0910645 42.3498C0.0910645 58.0244 12.7453 70.7407 28.4014 70.8681C28.4788 70.8681 65.4121 70.8681 65.4895 70.8681L43.2421 52.1532L46.2029 62.9898C46.0982 62.9898 28.4196 62.9898 28.3103 62.9898C17.0499 62.8442 7.97605 53.646 7.97605 42.3498C7.97605 30.9488 17.223 21.7143 28.6337 21.7143C31.0844 21.7143 33.4394 22.1421 35.6259 22.9158ZM46.8634 24.2311C47.8747 24.2311 48.6946 25.0503 48.6946 26.0607C48.6946 27.0711 47.8747 27.8903 46.8634 27.8903C45.8522 27.8903 45.0323 27.0711 45.0323 26.0607C45.0323 25.0503 45.8522 24.2311 46.8634 24.2311ZM73.6022 46.5324L78.0982 46.0682C78.3669 47.6201 78.909 48.7534 79.7335 49.4862C80.5534 50.2144 81.6649 50.5739 83.0633 50.5739C84.5392 50.5739 85.6552 50.2508 86.4022 49.6045C87.1538 48.9582 87.5274 48.2027 87.5274 47.338C87.5274 46.7782 87.3679 46.3048 87.0582 45.9134C86.7439 45.522 86.1927 45.1807 85.4047 44.8985C84.8672 44.6982 83.6464 44.3614 81.7332 43.8653C79.278 43.2327 77.5516 42.4544 76.5585 41.526C75.1601 40.2289 74.4632 38.645 74.4632 36.779C74.4632 35.5775 74.7911 34.4487 75.4471 33.4019C76.103 32.3552 77.0505 31.5587 78.2895 31.0125C79.5239 30.4664 81.0135 30.1933 82.7672 30.1933C85.6188 30.1933 87.7688 30.8441 89.2082 32.1549C90.6522 33.4611 91.4038 35.2043 91.4812 37.3889L86.8578 37.5573C86.6619 36.3375 86.2428 35.4682 85.6005 34.9357C84.9583 34.4032 83.9926 34.1347 82.708 34.1347C81.3779 34.1347 80.3393 34.4214 79.5877 34.9903C79.1049 35.359 78.8634 35.846 78.8634 36.4604C78.8634 37.0202 79.0912 37.4935 79.5467 37.8895C80.1252 38.3993 81.5328 38.9272 83.7694 39.4734C86.0059 40.015 87.6549 40.5839 88.7254 41.1664C89.7958 41.7535 90.634 42.5455 91.2398 43.5604C91.8457 44.5753 92.1508 45.8224 92.1508 47.3107C92.1508 48.6578 91.7864 49.9231 91.0622 51.1019C90.3333 52.2807 89.3084 53.1545 87.9783 53.7234C86.6528 54.3014 84.9947 54.5836 83.0132 54.5836C80.1298 54.5836 77.916 53.9009 76.3718 52.5264C74.823 51.1565 73.9074 49.1539 73.6022 46.5324ZM52.6713 30.2889H61.0756C62.9705 30.2889 64.4145 30.4345 65.4075 30.7349C66.7422 31.1445 67.8901 31.8682 68.8375 32.9059C69.7941 33.9436 70.5184 35.2134 71.0195 36.7198C71.5114 38.2218 71.762 40.0787 71.762 42.2815C71.762 44.2203 71.5251 45.8861 71.0605 47.2925C70.4911 49.0037 69.6803 50.3919 68.6235 51.4478C67.8263 52.2534 66.7467 52.8814 65.3938 53.3275C64.378 53.6642 63.0252 53.8281 61.3261 53.8281H52.6713V30.2889ZM57.2948 34.2667V49.8503H60.7202C62.0002 49.8503 62.9249 49.7729 63.4898 49.6227C64.2414 49.4316 64.8563 49.1039 65.3437 48.6442C65.8402 48.1845 66.2365 47.429 66.5463 46.3731C66.8606 45.3218 67.0109 43.8835 67.0109 42.063C67.0109 40.2425 66.8606 38.8544 66.5463 37.8759C66.2365 36.9019 65.8038 36.1464 65.2435 35.5957C64.6878 35.0541 63.9817 34.6809 63.1208 34.4897C62.4831 34.3441 61.2259 34.2667 59.3537 34.2667H57.2948ZM43.3696 33.9936C43.3879 33.9982 43.0417 33.2199 41.9712 31.8135C40.9007 30.4027 39.065 30.3981 39.065 30.3981L42.3584 27.8858C42.3584 27.8858 42.5224 24.5998 44.1531 22.7838C45.7793 20.9678 48.9816 19.7299 49.4644 19.9393C49.9473 20.1486 51.2318 23.33 51.0223 25.7558C50.8082 28.1816 48.5215 30.5528 48.5215 30.5528L48.9406 34.6718C48.9406 34.6718 47.6788 33.3382 45.9205 33.5203C44.1577 33.7023 43.3514 33.9845 43.3696 33.9936ZM42.7456 35.5092C42.7456 35.5092 40.3086 39.2412 38.4273 39.0819C37.5755 39.0091 36.71 38.6632 36.3911 38.3674C35.0975 37.175 33.8266 38.3401 33.2116 39.4278C32.5921 40.5293 32.9429 41.8582 33.9086 42.3589C35.3116 43.0825 36.8558 42.1723 37.826 43.3693C38.1494 43.7698 38.359 44.8985 38.2542 45.4037C37.9718 46.719 39.3429 47.7066 40.4589 47.7931C41.3107 47.8568 42.0805 47.4609 42.3037 46.8009C42.6909 45.6904 43.5883 45.6722 44.2716 46.1774C44.9913 46.7053 46.2667 46.2366 46.8634 45.3172C47.3736 44.5207 47.3372 43.3465 46.4763 42.5819C44.6178 40.9298 42.9506 42.7503 42.6727 40.197C42.3948 37.6437 42.7456 35.5092 42.7456 35.5092ZM39.5388 49.9868L37.5117 54.2286H28.1007L17.4462 30.744C17.4462 30.744 23.6412 30.1432 25.231 33.7069C26.8253 37.2705 32.2004 48.6169 32.2004 48.6169H33.4485L34.9836 45.1716C34.9836 45.1716 35.6441 47.6019 36.6599 48.6897C37.6711 49.7729 39.5388 49.9868 39.5388 49.9868Z" fill="#DC2E3F"/>
<path d="M100.653 27.9346V52.1604H96.1132V27.9346H100.653ZM111.402 35.1062L103.994 43.5545L100.022 47.5737L98.3671 44.2953L101.519 40.2918L105.949 35.1062H111.402ZM106.689 52.1604L101.646 44.2795L104.782 41.537L111.922 52.1604H106.689Z" fill="#232323"/>
<path d="M122.243 48.3145V40.7174C122.243 40.171 122.153 39.7034 121.975 39.3146C121.796 38.9153 121.518 38.6053 121.139 38.3847C120.772 38.164 120.293 38.0537 119.705 38.0537C119.201 38.0537 118.765 38.143 118.397 38.3216C118.029 38.4897 117.745 38.7367 117.546 39.0624C117.346 39.3776 117.246 39.7507 117.246 40.1815H112.707C112.707 39.4565 112.875 38.7682 113.211 38.1167C113.547 37.4652 114.036 36.8925 114.677 36.3987C115.318 35.8943 116.08 35.5003 116.962 35.2166C117.856 34.9328 118.854 34.791 119.957 34.791C121.281 34.791 122.458 35.0117 123.488 35.453C124.518 35.8943 125.327 36.5563 125.915 37.439C126.514 38.3216 126.814 39.4249 126.814 40.7489V48.0466C126.814 48.9818 126.871 49.7489 126.987 50.3478C127.102 50.9362 127.271 51.4511 127.491 51.8925V52.1604H122.905C122.684 51.6981 122.516 51.1201 122.4 50.4266C122.295 49.7226 122.243 49.0186 122.243 48.3145ZM122.842 41.7734L122.873 44.3426H120.335C119.737 44.3426 119.216 44.4109 118.775 44.5475C118.334 44.6841 117.971 44.8785 117.687 45.1307C117.404 45.3724 117.194 45.6561 117.057 45.9818C116.931 46.3075 116.868 46.6648 116.868 47.0536C116.868 47.4424 116.957 47.7944 117.136 48.1096C117.314 48.4144 117.572 48.656 117.908 48.8347C118.244 49.0028 118.638 49.0869 119.09 49.0869C119.773 49.0869 120.367 48.9503 120.871 48.6771C121.376 48.4039 121.765 48.0676 122.038 47.6683C122.321 47.269 122.469 46.8907 122.479 46.5335L123.677 48.4564C123.509 48.8872 123.278 49.3338 122.983 49.7961C122.7 50.2585 122.337 50.6946 121.896 51.1044C121.455 51.5037 120.924 51.8347 120.304 52.0974C119.684 52.3495 118.948 52.4756 118.097 52.4756C117.015 52.4756 116.032 52.2602 115.15 51.8294C114.278 51.3881 113.584 50.7839 113.069 50.0168C112.565 49.2392 112.313 48.3566 112.313 47.3688C112.313 46.4757 112.481 45.6823 112.817 44.9888C113.153 44.2953 113.647 43.7121 114.299 43.2393C114.961 42.7559 115.786 42.3934 116.773 42.1517C117.761 41.8995 118.906 41.7734 120.209 41.7734H122.842Z" fill="#232323"/>
</g>
<defs>
<clipPath id="clip0_1_4">
<rect width="128" height="71" fill="white"/>
</clipPath>
</defs>
</svg>
