<svg width="42" height="33" viewBox="0 0 42 33" fill="none" xmlns="http://www.w3.org/2000/svg">
<g clip-path="url(#clip0_1_1490)">
<path d="M40.8253 21.0564V20.5515H40.6985L40.5517 20.8983L40.4057 20.5515H40.2781V21.0564H40.3683V20.6756L40.5055 21.0042H40.5988L40.736 20.6748V21.0564H40.8253ZM40.0205 21.0564V20.6376H40.1832V20.5523H39.7684V20.6376H39.9312V21.0564H40.0205Z" fill="#F79410"/>
<path d="M26.4041 23.1698H15.4274V3.11621H26.4041V23.1698Z" fill="#FF5F00"/>
<path d="M16.1305 13.1414C16.1305 9.07339 18.0042 5.44976 20.9219 3.11455C18.7882 1.40693 16.0954 0.387709 13.1689 0.387709C6.24065 0.387709 0.624512 6.09762 0.624512 13.1414C0.624512 20.1851 6.24065 25.895 13.1689 25.895C16.0954 25.895 18.7882 24.8758 20.9219 23.1682C18.0042 20.833 16.1305 17.2093 16.1305 13.1414Z" fill="#EB001B"/>
<path d="M41.2081 13.1414C41.2081 20.1851 35.592 25.895 28.6637 25.895C25.7372 25.895 23.0444 24.8758 20.9099 23.1682C23.8285 20.833 25.7021 17.2093 25.7021 13.1414C25.7021 9.07339 23.8285 5.44976 20.9099 3.11455C23.0444 1.40693 25.7372 0.387709 28.6637 0.387709C35.592 0.387709 41.2081 6.09762 41.2081 13.1414Z" fill="#F79E1B"/>
<path d="M40.3786 32.0502V32.1337H40.4544C40.4711 32.1337 40.4855 32.1296 40.4958 32.1232C40.5054 32.1167 40.511 32.1053 40.511 32.0915C40.511 32.0777 40.5054 32.0672 40.4958 32.0607C40.4855 32.0534 40.4711 32.0502 40.4544 32.0502H40.3786ZM40.4552 31.9918C40.4942 31.9918 40.5246 32.0007 40.5461 32.0186C40.5676 32.0364 40.578 32.0607 40.578 32.0915C40.578 32.1175 40.57 32.1386 40.5525 32.1556C40.5357 32.1718 40.5118 32.1823 40.4799 32.1864L40.5804 32.304H40.5022L40.4089 32.1872H40.3786V32.304H40.3132V31.9918H40.4552ZM40.4352 32.4118C40.4711 32.4118 40.5046 32.4045 40.5349 32.3907C40.566 32.3769 40.5932 32.3583 40.6163 32.3348C40.6394 32.3113 40.6578 32.2837 40.6713 32.2513C40.6841 32.2196 40.6913 32.1856 40.6913 32.1491C40.6913 32.1126 40.6841 32.0786 40.6713 32.0469C40.6578 32.0153 40.6394 31.9869 40.6163 31.9634C40.5932 31.9399 40.566 31.9213 40.5349 31.9075C40.5046 31.8945 40.4711 31.888 40.4352 31.888C40.3993 31.888 40.365 31.8945 40.3339 31.9075C40.302 31.9213 40.2741 31.9399 40.251 31.9634C40.2278 31.9869 40.2095 32.0153 40.1967 32.0469C40.1832 32.0786 40.1768 32.1126 40.1768 32.1491C40.1768 32.1856 40.1832 32.2196 40.1967 32.2513C40.2095 32.2837 40.2278 32.3113 40.251 32.3348C40.2741 32.3583 40.302 32.3769 40.3339 32.3907C40.365 32.4045 40.3993 32.4118 40.4352 32.4118ZM40.4352 31.8126C40.4823 31.8126 40.5254 31.8215 40.5668 31.8394C40.6075 31.8564 40.6426 31.8807 40.6737 31.9115C40.704 31.9415 40.728 31.9772 40.7455 32.0186C40.7631 32.0591 40.7718 32.1029 40.7718 32.1491C40.7718 32.1953 40.7631 32.2391 40.7455 32.2796C40.728 32.3202 40.704 32.3559 40.6737 32.3867C40.6426 32.4167 40.6075 32.441 40.5668 32.4588C40.5254 32.4767 40.4823 32.4856 40.4352 32.4856C40.3874 32.4856 40.3435 32.4767 40.302 32.4588C40.2605 32.441 40.2246 32.4167 40.1943 32.3867C40.164 32.3559 40.1401 32.3202 40.1225 32.2796C40.105 32.2391 40.0962 32.1953 40.0962 32.1491C40.0962 32.1029 40.105 32.0591 40.1225 32.0186C40.1401 31.9772 40.164 31.9415 40.1943 31.9115C40.2246 31.8807 40.2605 31.8564 40.302 31.8394C40.3435 31.8215 40.3874 31.8126 40.4352 31.8126ZM9.35859 30.6101C9.35859 30.015 9.74226 29.526 10.3692 29.526C10.9682 29.526 11.3726 29.9939 11.3726 30.6101C11.3726 31.2264 10.9682 31.6942 10.3692 31.6942C9.74226 31.6942 9.35859 31.2053 9.35859 30.6101ZM12.0554 30.6101V28.9171H11.3311V29.3282C11.1014 29.0233 10.7529 28.832 10.2791 28.832C9.34504 28.832 8.61281 29.5763 8.61281 30.6101C8.61281 31.6448 9.34504 32.3883 10.2791 32.3883C10.7529 32.3883 11.1014 32.1969 11.3311 31.8921V32.3032H12.0554V30.6101ZM36.53 30.6101C36.53 30.015 36.9137 29.526 37.5406 29.526C38.1404 29.526 38.544 29.9939 38.544 30.6101C38.544 31.2264 38.1404 31.6942 37.5406 31.6942C36.9137 31.6942 36.53 31.2053 36.53 30.6101ZM39.2276 30.6101V27.5573H38.5026V29.3282C38.2728 29.0233 37.9243 28.832 37.4505 28.832C36.5164 28.832 35.7842 29.5763 35.7842 30.6101C35.7842 31.6448 36.5164 32.3883 37.4505 32.3883C37.9243 32.3883 38.2728 32.1969 38.5026 31.8921V32.3032H39.2276V30.6101ZM21.0455 29.4912C21.5121 29.4912 21.8121 29.7888 21.8886 30.3126H20.1602C20.2375 29.8236 20.5295 29.4912 21.0455 29.4912ZM21.0599 28.832C20.0836 28.832 19.4008 29.5544 19.4008 30.6101C19.4008 31.6869 20.1115 32.3883 21.1085 32.3883C21.6103 32.3883 22.0697 32.261 22.4741 31.914L22.1191 31.3683C21.84 31.5945 21.4842 31.7226 21.15 31.7226C20.6834 31.7226 20.2583 31.5029 20.1538 30.8931H22.6272C22.6344 30.8015 22.6416 30.7091 22.6416 30.6101C22.6344 29.5544 21.9931 28.832 21.0599 28.832ZM29.8052 30.6101C29.8052 30.015 30.1888 29.526 30.8158 29.526C31.4148 29.526 31.8192 29.9939 31.8192 30.6101C31.8192 31.2264 31.4148 31.6942 30.8158 31.6942C30.1888 31.6942 29.8052 31.2053 29.8052 30.6101ZM32.502 30.6101V28.9171H31.7777V29.3282C31.5472 29.0233 31.1994 28.832 30.7256 28.832C29.7916 28.832 29.0594 29.5763 29.0594 30.6101C29.0594 31.6448 29.7916 32.3883 30.7256 32.3883C31.1994 32.3883 31.5472 32.1969 31.7777 31.8921V32.3032H32.502V30.6101ZM25.7149 30.6101C25.7149 31.6375 26.4184 32.3883 27.492 32.3883C27.9937 32.3883 28.3279 32.2748 28.6901 31.9845L28.3423 31.3893C28.0703 31.588 27.7847 31.6942 27.4705 31.6942C26.8922 31.6869 26.4671 31.262 26.4671 30.6101C26.4671 29.9582 26.8922 29.5333 27.4705 29.526C27.7847 29.526 28.0703 29.6323 28.3423 29.8309L28.6901 29.2358C28.3279 28.9455 27.9937 28.832 27.492 28.832C26.4184 28.832 25.7149 29.5828 25.7149 30.6101ZM35.0528 28.832C34.6348 28.832 34.3628 29.0306 34.1746 29.3282V28.9171H33.4567V32.3032H34.1818V30.405C34.1818 29.8447 34.4187 29.5333 34.8925 29.5333C35.0392 29.5333 35.1924 29.5544 35.3455 29.6185L35.5689 28.9244C35.4085 28.8603 35.1996 28.832 35.0528 28.832ZM15.6376 29.1863C15.289 28.9528 14.8088 28.832 14.2792 28.832C13.4353 28.832 12.8921 29.2431 12.8921 29.9161C12.8921 30.4682 13.2965 30.8088 14.0415 30.915L14.3837 30.9645C14.7809 31.0212 14.9684 31.1274 14.9684 31.3188C14.9684 31.5807 14.7035 31.7299 14.209 31.7299C13.7073 31.7299 13.3452 31.5669 13.1011 31.3756L12.7597 31.9488C13.1569 32.2464 13.6586 32.3883 14.2018 32.3883C15.1638 32.3883 15.7213 31.9277 15.7213 31.2831C15.7213 30.688 15.2826 30.3766 14.5576 30.2704L14.2162 30.2201C13.9027 30.178 13.6515 30.1147 13.6515 29.8877C13.6515 29.6396 13.8884 29.4912 14.2856 29.4912C14.7107 29.4912 15.1223 29.6542 15.3241 29.7815L15.6376 29.1863ZM24.9827 28.832C24.5647 28.832 24.2927 29.0306 24.1053 29.3282V28.9171H23.3874V32.3032H24.1116V30.405C24.1116 29.8447 24.3485 29.5333 24.8223 29.5333C24.9691 29.5333 25.1222 29.5544 25.2754 29.6185L25.4987 28.9244C25.3384 28.8603 25.1294 28.832 24.9827 28.832ZM18.8018 28.9171H17.6173V27.8898H16.8851V28.9171H16.2095V29.5901H16.8851V31.1347C16.8851 31.9204 17.185 32.3883 18.0416 32.3883C18.3559 32.3883 18.718 32.2894 18.9478 32.1264L18.7388 31.4956C18.5226 31.6229 18.2857 31.6869 18.0975 31.6869C17.7353 31.6869 17.6173 31.4599 17.6173 31.1201V29.5901H18.8018V28.9171ZM7.97231 32.3032V30.178C7.97231 29.3777 7.47059 28.8393 6.66179 28.832C6.23665 28.8247 5.79796 28.9593 5.49087 29.4344C5.26115 29.059 4.89902 28.832 4.39013 28.832C4.03439 28.832 3.68662 28.9382 3.41462 29.3347V28.9171H2.68958L2.68958 32.3032H3.42101V30.4261C3.42101 29.8382 3.74165 29.526 4.23699 29.526C4.71796 29.526 4.96124 29.8447 4.96124 30.4188V32.3032H5.69347V30.4261C5.69347 29.8382 6.02767 29.526 6.50865 29.526C7.00318 29.526 7.24008 29.8447 7.24008 30.4188V32.3032H7.97231Z" fill="#303030"/>
</g>
<defs>
<clipPath id="clip0_1_1490">
<rect width="41.25" height="33" fill="white"/>
</clipPath>
</defs>
</svg>
