<svg width="19" height="19" viewBox="0 0 19 19" fill="none" xmlns="http://www.w3.org/2000/svg">
<g clip-path="url(#clip0_1_1095)">
<path d="M6.33337 12.6667L6.33337 14.7778L10.5556 14.7778L10.5556 12.6667L6.33337 12.6667Z" fill="#DC2E3F"/>
<path d="M6.33337 8.44443L6.33337 10.5555L10.5556 10.5555L10.5556 8.44443L6.33337 8.44443Z" fill="#DC2E3F"/>
<path d="M6.33337 4.2222L6.33337 6.33331L10.5556 6.33331L10.5556 4.2222L6.33337 4.2222Z" fill="#DC2E3F"/>
<path d="M14.2499 11.0833L14.2499 16.8889L8.97217 16.8889L8.97217 17.9445L14.2499 17.9445C14.5299 17.9445 14.7984 17.8332 14.9963 17.6353C15.1943 17.4373 15.3055 17.1689 15.3055 16.8889L15.3055 10.2336L13.4847 10.2336L13.4847 9.04085L12.6666 9.04085L12.6666 11.0833L14.2499 11.0833Z" fill="#DC2E3F"/>
<path d="M3.69446 2.11112L3.69446 16.8889C3.69446 17.1689 3.80567 17.4373 4.00362 17.6353C4.20158 17.8332 4.47006 17.9445 4.75001 17.9445L6.86112 17.9445L6.86112 16.8889L4.75001 16.8889L4.75001 2.11112L6.86112 2.11112L6.86112 1.05557L4.75001 1.05557C4.47006 1.05557 4.20158 1.16678 4.00362 1.36473C3.80567 1.56269 3.69446 1.83117 3.69446 2.11112Z" fill="#DC2E3F"/>
<path d="M14.2499 2.11112L14.2499 8.97223L15.3055 8.97223L15.3055 2.11112C15.3055 1.83117 15.1943 1.56268 14.9963 1.36473C14.7984 1.16677 14.5299 1.05556 14.2499 1.05556L8.97217 1.05556L8.97217 2.11112L14.2499 2.11112Z" fill="#DC2E3F"/>
</g>
<defs>
<clipPath id="clip0_1_1095">
<rect width="19" height="19" fill="white" transform="translate(0 19) rotate(-90)"/>
</clipPath>
</defs>
</svg>
