<svg width="65" height="19" viewBox="0 0 65 19" fill="none" xmlns="http://www.w3.org/2000/svg">
<g clip-path="url(#clip0_1_1474)">
<path fill-rule="evenodd" clip-rule="evenodd" d="M57.704 0H45.3673C46.0306 4.20714 50.0102 8.14286 54.3877 8.14286H64.2041C64.3367 7.73571 64.3367 7.19286 64.3367 6.78571C64.3367 2.98571 61.4183 0 57.704 0Z" fill="url(#paint0_linear_1_1474)"/>
<path fill-rule="evenodd" clip-rule="evenodd" d="M46.4286 8.82153V19.0001H52.398V13.5715H57.7041C60.6225 13.5715 63.1429 11.5358 63.9388 8.82153H46.4286Z" fill="#4DB45F"/>
<path fill-rule="evenodd" clip-rule="evenodd" d="M25.2041 0V19H30.5102C30.5102 19 31.8368 19 32.5 17.6429C36.0817 10.3143 37.1429 8.14286 37.1429 8.14286H37.8061V19H43.7755V0H38.4694C38.4694 0 37.1429 0.135714 36.4796 1.35714C33.4286 7.6 31.8368 10.8571 31.8368 10.8571H31.1735V0H25.2041Z" fill="#4DB45F"/>
<path fill-rule="evenodd" clip-rule="evenodd" d="M0 19V0H5.96939C5.96939 0 7.69388 0 8.62245 2.71429C11.0102 9.90714 11.2755 10.8571 11.2755 10.8571C11.2755 10.8571 11.8061 9.09286 13.9286 2.71429C14.8571 0 16.5816 0 16.5816 0H22.551V19H16.5816V8.82143H15.9184L12.602 19H9.94898L6.63265 8.82143H5.96939V19H0Z" fill="#4DB45F"/>
</g>
<defs>
<linearGradient id="paint0_linear_1_1474" x1="45.3331" y1="4.07143" x2="64.3367" y2="4.07143" gradientUnits="userSpaceOnUse">
<stop stop-color="#00B4E6"/>
<stop offset="1" stop-color="#088CCB"/>
</linearGradient>
<clipPath id="clip0_1_1474">
<rect width="65" height="19" fill="white"/>
</clipPath>
</defs>
</svg>
