<svg width="80" height="34" viewBox="0 0 80 34" fill="none" xmlns="http://www.w3.org/2000/svg">
<g clip-path="url(#clip0_1_1470)">
<path d="M32.3515 32.8202C32.1992 32.4051 31.9233 32.1221 31.7235 31.7542C31.2382 31.1221 30.6673 30.5749 30.0965 30.0278C29.8966 29.9617 29.811 29.773 29.6207 29.6976C29.497 29.5372 29.2972 29.4523 29.1355 29.3297C28.812 29.0844 28.4599 28.8768 28.0984 28.6693C27.4133 28.2353 26.5665 27.9617 25.7292 27.6787C24.8253 27.4617 23.8738 27.3013 22.8843 27.1693C21.9043 27.0278 20.9242 26.8957 20.1821 26.5089C19.7539 26.3863 19.4399 26.1504 19.0689 25.9617C18.7263 25.7353 18.3553 25.5466 18.0698 25.2636C17.7178 25.0561 17.4989 24.707 17.223 24.424C17.1279 24.2353 16.9661 24.1221 16.89 23.9146C16.7948 23.8768 16.7663 23.7636 16.7092 23.6976C16.6426 23.6221 16.6426 23.4712 16.5284 23.4429C16.4713 23.8297 16.4904 24.2919 16.5284 24.6881C16.576 24.858 16.595 25.0655 16.6426 25.2353C16.6711 25.3863 16.8139 25.6315 16.7568 25.7447C13.7882 25.5938 11.6188 24.6598 9.7349 23.4334C8.80245 22.8202 8.00321 22.0749 7.26106 21.273C6.93756 20.8297 6.58552 20.4051 6.30007 19.9146C6.00512 19.4334 5.75773 18.8863 5.49132 18.3768C5.05364 17.273 4.64451 16.141 4.49227 14.7542C4.29246 13.4617 4.34004 11.8108 4.63499 10.6127C4.73965 9.95229 4.95849 9.39569 5.14879 8.82022C5.27248 8.55607 5.40569 8.29191 5.51986 8.01833C5.68161 7.79191 5.76725 7.48059 5.96706 7.28248C6.5094 6.27305 7.31815 5.51833 8.14593 4.79191C9.04032 4.14097 10.0584 3.61267 11.2858 3.29192C12.4656 3.02776 14.0736 2.98059 15.3486 3.25418C17.9366 3.78248 19.8871 4.93342 21.5237 6.40512C23.1792 7.84852 24.4542 9.67871 25.3296 11.9051C26.2335 14.0183 26.5475 17.3108 25.7387 19.707C25.4057 19.5183 25.0727 19.3391 24.7397 19.1598C24.34 19.0466 23.9499 18.9146 23.4837 18.8674C22.9223 18.858 22.3705 18.8674 22.0089 19.0466C22.7416 18.9712 23.3315 19.1693 23.7882 19.3391C24.0546 19.4429 24.2068 19.5089 24.4162 19.6315C24.8253 19.8674 25.1868 20.0844 25.4913 20.4051C26.3572 21.1598 26.9756 22.1598 27.2706 23.4806C27.2706 23.5183 27.3182 23.5089 27.3086 23.4429C27.3467 23.4334 27.3657 23.4051 27.3848 23.3674C27.4323 23.3108 27.4894 23.2542 27.537 23.1881C27.6321 23.0749 27.7273 22.9617 27.7939 22.8202C27.9937 22.5844 28.1555 22.3202 28.3077 22.0466C28.6597 21.5372 28.9261 20.9523 29.2306 20.3957C29.7539 19.207 30.1821 17.924 30.4485 16.4712C30.9813 13.2447 30.3438 10.1881 29.2306 7.93342C28.0888 5.65984 26.4904 3.83908 24.4257 2.47116C22.3419 1.11267 19.9062 0.11267 16.557 0.0183299C16.5379 -0.0477078 16.5094 0.0277639 16.4428 0.0183299C14.6731 -0.0382739 13.2458 0.207009 11.8281 0.5655C11.1716 0.782481 10.4866 0.97116 9.90616 1.26361C9.24013 1.48059 8.7073 1.83908 8.09836 2.10324C7.87952 2.31078 7.54651 2.41456 7.31815 2.61267C7.02319 2.75418 6.80436 2.98059 6.5094 3.1221C6.03366 3.5372 5.52938 3.90512 5.06316 4.32965C4.60645 4.74475 4.20683 5.21644 3.76915 5.65041C3.70255 5.80135 3.58837 5.90512 3.47419 6.01833C3.39808 6.15984 3.30293 6.28248 3.17924 6.38625C3.13166 6.55607 2.97943 6.6221 2.92234 6.79191C2.79865 6.88625 2.7701 7.07493 2.62738 7.15984C2.50369 7.46173 2.28485 7.67871 2.14213 7.96173C1.97086 8.23531 1.83766 8.5372 1.66639 8.80135C1.39998 9.41456 1.11454 10.0089 0.895696 10.6693C0.667342 11.3108 0.477047 11.99 0.343841 12.7259C0.20112 13.4146 0.0679133 14.3108 0.0869428 15.0372C-0.00820467 15.3013 0.0679133 15.7919 0.0869428 16.1032C0.0869428 16.1598 0.0488838 16.1787 0.0488838 16.2164C0.0488838 16.5655 0.144031 16.99 0.163061 17.207C0.239179 18.0089 0.3819 18.7542 0.610254 19.4051C0.752975 20.1315 1.05745 20.6976 1.27629 21.3485C1.6093 21.8957 1.83766 22.5466 2.23728 23.0372C2.53223 23.6127 2.95088 24.0655 3.3505 24.5372C3.77867 24.99 4.20683 25.4523 4.72062 25.8202C5.66259 26.6315 6.7663 27.2825 7.97467 27.8391C10.2297 28.924 13.5979 29.6315 16.6236 29.4523C17.3943 29.3485 18.1745 29.2542 18.8786 29.0844C19.5256 28.8485 20.2772 28.707 21.0574 28.6127C22.8367 28.4995 24.3781 28.6598 25.7482 29.0561C27.1374 29.424 28.3362 29.9806 29.3733 30.707C29.9252 31.0278 30.3819 31.4429 30.8481 31.8391C31.3239 32.2447 31.7045 32.7447 32.1421 33.1976C32.1992 33.3674 32.3134 33.49 32.399 33.641C32.5132 33.7636 32.4561 34.0466 32.732 34.0089C32.9033 33.8391 32.7035 33.5938 32.694 33.3863C32.5227 33.207 32.4847 32.9712 32.3515 32.8202Z" fill="#FCB316"/>
<path d="M25.4425 22.783C25.4044 22.783 25.3949 22.8113 25.3664 22.8207C25.2997 22.9622 25.3283 23.1886 25.3664 23.3301C25.5662 23.7358 25.6328 24.2641 26.0704 24.4339C26.2798 24.3679 26.2607 24.066 26.2512 23.7735C26.1561 23.415 26.0229 23.0943 25.804 22.8584C25.6518 22.8018 25.5471 22.7075 25.4425 22.783ZM22.8545 23.8113C22.8545 23.7924 22.8259 23.7735 22.8164 23.8113C22.4548 23.7641 22.3311 23.9622 22.1504 24.1037C21.8364 24.9245 22.3407 25.7264 23.2255 25.7169C23.5776 25.632 23.7964 25.4056 23.8535 25.0188C23.8059 24.3301 23.511 23.8867 22.8545 23.8113Z" fill="#FCB316"/>
<path d="M44.1865 21.1981C44.3292 21.7924 44.6337 22.2169 44.9762 22.6132C45.3188 23.0094 45.7184 23.3396 46.2036 23.5849C46.6603 23.8679 47.1551 24.1037 47.726 24.2641C48.0019 24.3584 48.2683 24.4717 48.6109 24.5094C48.8487 24.6415 49.1342 24.7075 49.1532 25.0471C49.1437 25.4528 48.8678 25.6037 48.5157 25.6792C48.1637 25.6037 47.726 25.6132 47.431 25.4811C46.6889 25.3962 46.0894 25.1603 45.4615 24.9434C44.2626 24.4811 43.2541 23.8113 42.4168 22.9905C42.2455 22.7075 42.0076 22.4811 41.8268 22.2075C41.6461 21.9339 41.5224 21.6037 41.3321 21.3301C39.8668 21.1415 38.8678 20.4811 37.9924 19.7169C37.1837 18.8018 36.5366 17.7075 36.2702 16.2547C35.9563 14.8584 36.0514 13.1132 36.4225 11.7641C37.2312 9.1509 38.9249 7.41505 42.1218 7.1792C43.0067 7.2075 43.7774 7.31128 44.4815 7.57543C45.1951 7.83014 45.8706 8.30184 46.4034 8.79241C46.451 8.83014 46.47 8.83958 46.4986 8.88675C46.6128 9.04712 46.8887 9.27354 47.0409 9.47165C47.0695 9.50939 47.06 9.57543 47.0885 9.6226C47.1456 9.7075 47.2312 9.74524 47.2883 9.82071C47.3169 9.86788 47.3073 9.92448 47.3359 9.96222C47.3739 10.0188 47.4215 10.1037 47.4786 10.2075C47.4976 10.2452 47.5642 10.2735 47.5738 10.3018C47.6594 10.4622 47.6974 10.6603 47.7736 10.8396C47.8497 11.0283 47.9543 11.1886 48.0209 11.3773C48.2112 11.9339 48.3349 12.5943 48.411 13.2735C48.6013 15.2358 48.2112 16.9905 47.4786 18.2924C47.1361 18.9717 46.6603 19.5283 46.099 20C45.5852 20.5377 44.8811 20.8584 44.1865 21.1981ZM41.8268 8.91505C41.3987 8.94335 41.1418 9.14146 40.7897 9.25467C40.5614 9.46222 40.2759 9.6226 40.1047 9.88675C39.8192 10.0471 39.7431 10.4056 39.5148 10.6132C39.3245 11.0849 39.1437 11.6132 39.02 12.2264C38.9058 12.8301 38.8297 13.5094 38.8202 14.1792C38.8107 15.8584 39.1722 17.5283 39.8478 18.5188C40.2474 19 40.7326 19.3962 41.3226 19.6886C41.6651 19.7169 41.9315 19.8301 42.3026 19.8396C42.5119 19.7641 42.8544 19.8396 42.9876 19.6886C43.2921 19.7075 43.3587 19.5094 43.6251 19.4905C43.7679 19.349 43.9201 19.2358 44.1199 19.1509C44.3007 18.9528 44.4719 18.7547 44.6622 18.566C44.7574 18.4245 44.8145 18.2264 44.9572 18.1226C45.8135 16.5 45.9087 13.5283 45.3473 11.6415C45.138 10.9528 44.843 10.3962 44.51 9.93392C44.1484 9.56599 43.7203 9.25467 43.235 9.00939C42.8449 8.92448 42.4738 8.82071 41.9601 8.86788C41.9315 8.86788 41.903 8.87731 41.9125 8.91505C41.8934 8.91505 41.8649 8.91505 41.8268 8.91505ZM52.2074 7.54712C52.9781 7.57543 53.882 7.48109 54.5671 7.59429C54.7193 7.83014 54.6622 8.11316 54.6622 8.37731C54.7193 11.9528 54.6622 15.7924 54.6622 19.4434C54.6622 19.7358 54.6717 20.0377 54.6622 20.3207C54.6527 20.566 54.7193 20.8301 54.5671 21.0566C54.2246 21.1415 53.7298 21.1037 53.2921 21.1037C52.8259 21.1037 52.3692 21.1698 52.0647 21.0094C51.9791 16.6886 51.9791 12.0283 52.0647 7.69807C52.0837 7.6226 52.1313 7.57543 52.2074 7.54712ZM58.1066 7.54712H60.4187C60.628 7.83014 60.6946 8.25467 60.7612 8.66977C61.4558 11.2924 62.1408 13.9245 62.7783 16.6132C62.9305 16.632 62.883 16.4528 62.9305 16.3679C62.9972 16.3018 62.9591 16.1415 63.0257 16.0754C63.0542 15.8584 63.1874 15.7452 63.1779 15.4905C63.3492 15.1603 63.4063 14.7075 63.568 14.3679C63.7678 13.5754 64.0343 12.8396 64.2626 12.0754C64.4815 11.283 64.7764 10.566 64.9477 9.7358C65.2712 9.06599 65.3473 8.1509 65.7374 7.54712H66.7174C67.0695 8.2075 67.2027 9.08486 67.5071 9.79241C67.7069 10.5849 67.9829 11.3018 68.1922 12.0849C68.6775 13.6037 69.1817 15.1037 69.6194 16.6698C69.8192 16.3773 69.8192 15.8867 69.9619 15.5471C70.0476 15.1603 70.1237 14.7641 70.2569 14.4245C70.6375 12.8773 70.999 11.3207 71.4367 9.83958C71.5985 9.06599 71.7602 8.27354 72.0266 7.59429C72.5975 7.50939 73.4729 7.50939 74.0438 7.59429C74.0913 8.16977 73.8249 8.79241 73.6537 9.30184C73.5585 9.92448 73.3302 10.4056 73.2065 11.0094C72.8544 12.1132 72.588 13.283 72.2264 14.3773C71.9505 15.5471 71.5794 16.6226 71.294 17.7924C71.1037 18.3301 70.9705 18.9245 70.7992 19.5C70.6089 20.0283 70.5423 20.6792 70.2569 21.1132H68.8773C68.5252 20.5 68.4015 19.6698 68.0875 19.0188C67.4025 16.8679 66.6413 14.8018 65.9753 12.632C65.7469 12.8679 65.7469 13.349 65.5852 13.6509C65.4805 14.0188 65.3758 14.3867 65.2426 14.7264C65.0523 15.4717 64.7669 16.1037 64.6051 16.8679C64.3292 17.5377 64.1294 18.283 63.9201 19.0188C63.6346 19.6603 63.53 20.4811 63.1779 21.066C62.8164 21.1792 62.2455 21.0849 61.7983 21.1132C61.4558 20.7264 61.4177 20.0283 61.2084 19.5C61.0466 18.9528 60.9325 18.349 60.7231 17.8396C60.4567 16.6509 60.0571 15.6037 59.7907 14.4245C59.4386 13.3301 59.1342 12.1886 58.8107 11.0566C58.6299 10.5188 58.4967 9.94335 58.3159 9.39618C58.2303 8.81128 57.8306 8.28297 57.9734 7.64146C57.9924 7.59429 58.0495 7.56599 58.1066 7.54712ZM77.5262 7.54712C78.2969 7.57543 79.1912 7.48109 79.8858 7.59429C80.0571 8.10373 79.981 8.6509 79.981 9.19807V19.4339C79.981 19.9905 80.0476 20.5283 79.8858 21.0471C79.353 21.1037 78.5728 21.132 77.9163 21.0943C77.726 21.0849 77.4976 21.1415 77.3739 21C77.2027 20.4905 77.2788 19.9528 77.2788 19.3867V9.25467C77.2788 8.64146 77.2217 8.04712 77.3739 7.64146C77.412 7.59429 77.4691 7.56599 77.5262 7.54712Z" fill="#0269B3"/>
</g>
<defs>
<clipPath id="clip0_1_1470">
<rect width="80" height="34" fill="white"/>
</clipPath>
</defs>
</svg>
