<svg width="52" height="21" viewBox="0 0 52 21" fill="none" xmlns="http://www.w3.org/2000/svg">
<path d="M10.136 14.736C10.136 14.1387 9.912 13.6533 9.464 13.28C9.03467 12.9067 8.484 12.5707 7.812 12.272C7.15867 11.9547 6.44 11.6373 5.656 11.32C4.89067 10.984 4.172 10.5827 3.5 10.116C2.84667 9.63067 2.296 9.03333 1.848 8.324C1.41867 7.61467 1.204 6.70933 1.204 5.608C1.204 4.656 1.36267 3.83467 1.68 3.144C1.99733 2.43467 2.44533 1.84667 3.024 1.38C3.62133 0.913332 4.32133 0.567999 5.124 0.343999C5.92667 0.119999 6.82267 0.0079987 7.812 0.0079987C8.95067 0.0079987 10.024 0.110666 11.032 0.316C12.04 0.502666 12.8707 0.782666 13.524 1.156L12.32 4.376C11.9093 4.11467 11.2933 3.88133 10.472 3.676C9.65067 3.452 8.764 3.34 7.812 3.34C6.916 3.34 6.22533 3.51733 5.74 3.872C5.27333 4.22667 5.04 4.70267 5.04 5.3C5.04 5.86 5.25467 6.32667 5.684 6.7C6.132 7.07333 6.68267 7.41867 7.336 7.736C8.008 8.05333 8.72667 8.38 9.492 8.716C10.276 9.052 10.9947 9.46267 11.648 9.948C12.32 10.4147 12.8707 11.0027 13.3 11.712C13.748 12.4027 13.972 13.2707 13.972 14.316C13.972 15.3613 13.7947 16.2667 13.44 17.032C13.104 17.7787 12.6187 18.404 11.984 18.908C11.368 19.412 10.612 19.7853 9.716 20.028C8.83867 20.2707 7.868 20.392 6.804 20.392C5.404 20.392 4.172 20.2613 3.108 20C2.044 19.7387 1.26 19.4773 0.756 19.216L1.988 15.94C2.19333 16.052 2.45467 16.1733 2.772 16.304C3.108 16.4347 3.48133 16.556 3.892 16.668C4.30267 16.78 4.732 16.8733 5.18 16.948C5.64667 17.0227 6.12267 17.06 6.608 17.06C7.74667 17.06 8.61467 16.8733 9.212 16.5C9.828 16.108 10.136 15.52 10.136 14.736ZM31.7317 9.836L32.1517 5.944H31.9837L30.7797 9.08L26.6077 16.388H25.3757L20.9797 9.052L19.7477 5.944H19.6077L20.1677 9.808V20H16.5277V0.399999H20.0277L25.2637 9.36L26.1877 11.6H26.2997L27.1397 9.304L32.0957 0.399999H35.5677V20H31.7317V9.836ZM47.3782 14.736C47.3782 14.1387 47.1542 13.6533 46.7062 13.28C46.2769 12.9067 45.7262 12.5707 45.0542 12.272C44.4009 11.9547 43.6822 11.6373 42.8982 11.32C42.1329 10.984 41.4142 10.5827 40.7422 10.116C40.0889 9.63067 39.5382 9.03333 39.0902 8.324C38.6609 7.61467 38.4462 6.70933 38.4462 5.608C38.4462 4.656 38.6049 3.83467 38.9222 3.144C39.2395 2.43467 39.6875 1.84667 40.2662 1.38C40.8635 0.913332 41.5635 0.567999 42.3662 0.343999C43.1689 0.119999 44.0649 0.0079987 45.0542 0.0079987C46.1929 0.0079987 47.2662 0.110666 48.2742 0.316C49.2822 0.502666 50.1129 0.782666 50.7662 1.156L49.5622 4.376C49.1515 4.11467 48.5355 3.88133 47.7142 3.676C46.8929 3.452 46.0062 3.34 45.0542 3.34C44.1582 3.34 43.4675 3.51733 42.9822 3.872C42.5155 4.22667 42.2822 4.70267 42.2822 5.3C42.2822 5.86 42.4969 6.32667 42.9262 6.7C43.3742 7.07333 43.9249 7.41867 44.5782 7.736C45.2502 8.05333 45.9689 8.38 46.7342 8.716C47.5182 9.052 48.2369 9.46267 48.8902 9.948C49.5622 10.4147 50.1129 11.0027 50.5422 11.712C50.9902 12.4027 51.2142 13.2707 51.2142 14.316C51.2142 15.3613 51.0369 16.2667 50.6822 17.032C50.3462 17.7787 49.8609 18.404 49.2262 18.908C48.6102 19.412 47.8542 19.7853 46.9582 20.028C46.0809 20.2707 45.1102 20.392 44.0462 20.392C42.6462 20.392 41.4142 20.2613 40.3502 20C39.2862 19.7387 38.5022 19.4773 37.9982 19.216L39.2302 15.94C39.4355 16.052 39.6969 16.1733 40.0142 16.304C40.3502 16.4347 40.7235 16.556 41.1342 16.668C41.5449 16.78 41.9742 16.8733 42.4222 16.948C42.8889 17.0227 43.3649 17.06 43.8502 17.06C44.9889 17.06 45.8569 16.8733 46.4542 16.5C47.0702 16.108 47.3782 15.52 47.3782 14.736Z" fill="#333333"/>
</svg>
