<svg width="13" height="12" viewBox="0 0 13 12" fill="none" xmlns="http://www.w3.org/2000/svg">
<path d="M12.2415 4.36659C12.1769 4.16786 12.0051 4.02303 11.7984 3.99302L8.29199 3.48358L6.72385 0.305987C6.63138 0.118633 6.44055 0 6.23164 0C6.0227 0 5.83187 0.118633 5.73943 0.305987L4.17141 3.48354L0.664921 3.99298C0.458173 4.02303 0.28637 4.16786 0.221821 4.36656C0.157272 4.56529 0.211099 4.78342 0.360727 4.92924L2.89802 7.40224L2.29882 10.8949C2.2635 11.1008 2.34814 11.3089 2.51716 11.4317C2.61278 11.5012 2.72604 11.5365 2.83984 11.5365C2.92718 11.5365 3.0149 11.5157 3.09522 11.4735L6.23161 9.82467L9.36796 11.4735C9.44875 11.516 9.53723 11.5362 9.62487 11.5365C9.92768 11.5361 10.173 11.2905 10.173 10.9877C10.173 10.9455 10.1682 10.9044 10.1592 10.865L9.56523 7.40228L12.1025 4.92924C12.2522 4.78342 12.306 4.56529 12.2415 4.36659Z" fill="#DC2E3F"/>
</svg>
