<svg width="88" height="85" viewBox="0 0 88 85" fill="none" xmlns="http://www.w3.org/2000/svg">
<g filter="url(#filter0_d_1_1522)">
<path d="M34.2936 39.1211C36.1647 40.3505 38.3423 41 40.5907 41C43.8832 41 46.9004 39.6905 49.0873 37.3129C51.1799 35.0373 52.331 31.9797 52.2737 28.8767C53.067 28.174 54 26.8322 54 25.5244C54 25.0231 53.4745 24.7048 53.0484 24.9603C52.3032 25.4137 51.6236 25.5322 50.9247 25.3291C49.4974 23.8888 47.3728 23.5854 45.5825 24.5845C44.0179 25.4564 43.1481 27.0519 43.2264 28.7956C40.5831 28.4617 38.141 27.0894 36.4383 24.9568C36.1588 24.6089 35.6283 24.6499 35.4059 25.044C34.5858 26.4983 34.5942 28.1836 35.3074 29.5446C34.9681 29.6065 34.7584 29.902 34.7584 30.222C34.7584 31.59 35.3529 32.8472 36.3103 33.7051C36.1318 33.883 36.0729 34.1471 36.1487 34.3825C36.5697 35.6921 37.5229 36.7157 38.7145 37.2283C37.4185 37.8691 35.9853 38.0827 34.7095 37.9206C34.0493 37.8282 33.7235 38.7471 34.2936 39.1211ZM40.7633 37.4524C41.2357 37.0766 40.9848 36.2937 40.3919 36.2806C39.3477 36.2579 38.397 35.7252 37.805 34.8874C38.0905 34.8682 38.3861 34.8228 38.6673 34.7444C39.3082 34.5648 39.2778 33.6075 38.6269 33.4723C37.4455 33.2265 36.5183 32.3354 36.1706 31.188C36.488 31.2691 36.8114 31.3144 37.1339 31.3206C37.773 31.324 38.0147 30.4757 37.4935 30.1209C36.3188 29.3196 35.8177 27.9046 36.1495 26.5741C38.2008 28.7259 40.9839 30.0223 43.9278 30.1688C44.3497 30.1958 44.6663 29.7852 44.5737 29.3693C44.1737 27.5741 45.1421 26.316 46.1821 25.7363C47.2111 25.1608 48.8633 24.9812 50.1298 26.357C50.5062 26.7677 51.7761 26.7834 52.4219 26.6273C52.1323 27.1923 51.6868 27.7285 51.27 28.0301C51.0923 28.1592 50.9904 28.3736 51.0013 28.5977C51.1369 31.4618 50.1062 34.3093 48.1736 36.4096C46.2267 38.5256 43.5346 39.6913 40.5915 39.6913C39.421 39.6913 38.2732 39.4943 37.1886 39.1142C38.4854 38.8543 39.7174 38.2859 40.7633 37.4524Z" fill="#9B9B9B"/>
</g>
<defs>
<filter id="filter0_d_1_1522" x="0" y="0" width="88" height="85" filterUnits="userSpaceOnUse" color-interpolation-filters="sRGB">
<feFlood flood-opacity="0" result="BackgroundImageFix"/>
<feColorMatrix in="SourceAlpha" type="matrix" values="0 0 0 0 0 0 0 0 0 0 0 0 0 0 0 0 0 0 127 0" result="hardAlpha"/>
<feOffset dy="10"/>
<feGaussianBlur stdDeviation="17"/>
<feComposite in2="hardAlpha" operator="out"/>
<feColorMatrix type="matrix" values="0 0 0 0 0.4625 0 0 0 0 0.4625 0 0 0 0 0.4625 0 0 0 0.43 0"/>
<feBlend mode="normal" in2="BackgroundImageFix" result="effect1_dropShadow_1_1522"/>
<feBlend mode="normal" in="SourceGraphic" in2="effect1_dropShadow_1_1522" result="shape"/>
</filter>
</defs>
</svg>
