<svg width="38" height="38" viewBox="0 0 38 38" fill="none" xmlns="http://www.w3.org/2000/svg">
<path d="M31.6667 5.7C31.6667 4.65248 30.8142 3.8 29.7667 3.8C28.7192 3.8 27.8667 4.65248 27.8667 5.7C27.8667 6.74752 28.7192 7.6 29.7667 7.6C30.8142 7.6 31.6667 6.74752 31.6667 5.7ZM29.1333 5.7C29.1333 5.35102 29.4176 5.06669 29.7666 5.06669C30.1156 5.06669 30.3999 5.35102 30.3999 5.7C30.3999 6.04898 30.1156 6.33331 29.7666 6.33331C29.4177 6.33331 29.1333 6.04898 29.1333 5.7Z" fill="#DC2E3F"/>
<path d="M6.96669 25.3333C6.61712 25.3333 6.33338 25.617 6.33338 25.9666C6.33338 26.3162 6.61712 26.5999 6.96669 26.5999H18.3667C18.7163 26.5999 19 26.3162 19 25.9666C19 25.617 18.7163 25.3333 18.3667 25.3333H6.96669Z" fill="#DC2E3F"/>
<path d="M26.6 5.7C26.6 4.65248 25.7475 3.8 24.7 3.8C23.6525 3.8 22.8 4.65248 22.8 5.7C22.8 6.74752 23.6525 7.6 24.7 7.6C25.7475 7.6 26.6 6.74752 26.6 5.7ZM24.0667 5.7C24.0667 5.35102 24.351 5.06669 24.7 5.06669C25.049 5.06669 25.3333 5.35102 25.3333 5.7C25.3333 6.04898 25.049 6.33331 24.7 6.33331C24.351 6.33331 24.0667 6.04898 24.0667 5.7Z" fill="#DC2E3F"/>
<path d="M18.3667 6.33331C18.7163 6.33331 19 6.04957 19 5.7C19 5.35043 18.7163 5.06669 18.3667 5.06669H6.96669C6.61712 5.06669 6.33338 5.35043 6.33338 5.7C6.33338 6.04957 6.61712 6.33331 6.96669 6.33331H18.3667Z" fill="#DC2E3F"/>
<path d="M34.8333 0H3.16669C1.539 0 0 1.539 0 3.16669V8.23338C0 8.58295 0.283738 8.86669 0.633309 8.86669C0.982879 8.86669 1.26662 8.58295 1.26662 8.23338V3.16669C1.26662 2.24326 2.24319 1.26669 3.16662 1.26669H34.8333C35.7567 1.26669 36.7333 2.24326 36.7333 3.16669V28.5C36.7333 29.4234 35.7567 30.4 34.8333 30.4H3.16669C2.24326 30.4 1.26669 29.4234 1.26669 28.5V21.5333H34.8334C35.183 21.5333 35.4667 21.2496 35.4667 20.9C35.4667 20.5504 35.183 20.2667 34.8334 20.2667H0.633309C0.283738 20.2667 0 20.5504 0 20.9V28.5C0 30.1277 1.539 31.6667 3.16669 31.6667H34.8334C36.461 31.6667 38 30.1277 38 28.5V3.16669C38 1.539 36.461 0 34.8333 0Z" fill="#DC2E3F"/>
<path d="M0.633309 19C0.982879 19 1.26662 18.7163 1.26662 18.3667V11.4H34.8333C35.1829 11.4 35.4666 11.1163 35.4666 10.7667C35.4666 10.4171 35.1829 10.1334 34.8333 10.1334H0.633309C0.283738 10.1334 0 10.4171 0 10.7667V18.3667C0 18.7163 0.283738 19 0.633309 19Z" fill="#DC2E3F"/>
<path d="M27.8667 25.9667C27.8667 27.0142 28.7192 27.8667 29.7667 27.8667C30.8142 27.8667 31.6667 27.0142 31.6667 25.9667C31.6667 24.9192 30.8142 24.0667 29.7667 24.0667C28.7192 24.0667 27.8667 24.9192 27.8667 25.9667ZM30.4 25.9667C30.4 26.3157 30.1157 26.6 29.7667 26.6C29.4177 26.6 29.1334 26.3157 29.1334 25.9667C29.1334 25.6177 29.4177 25.3334 29.7667 25.3334C30.1157 25.3333 30.4 25.6177 30.4 25.9667Z" fill="#DC2E3F"/>
<path d="M29.7667 35.4667H20.7835C20.5922 34.9302 20.1698 34.5079 19.6333 34.3165V33.5667C19.6333 33.2171 19.3496 32.9334 19 32.9334C18.6504 32.9334 18.3667 33.2171 18.3667 33.5667V34.3165C17.8302 34.5078 17.4079 34.9302 17.2165 35.4667H8.23331C7.88374 35.4667 7.6 35.7504 7.6 36.1C7.6 36.4496 7.88374 36.7333 8.23331 36.7333H17.2171C17.4793 37.4693 18.1754 38 19 38C19.8246 38 20.5207 37.4693 20.7835 36.7333H29.7667C30.1163 36.7333 30.4 36.4496 30.4 36.1C30.4 35.7504 30.1163 35.4667 29.7667 35.4667ZM19 36.7333C18.651 36.7333 18.3667 36.449 18.3667 36.1C18.3667 35.751 18.651 35.4667 19 35.4667C19.349 35.4667 19.6333 35.751 19.6333 36.1C19.6333 36.449 19.349 36.7333 19 36.7333Z" fill="#DC2E3F"/>
<path d="M6.96669 15.2C6.61712 15.2 6.33338 15.4837 6.33338 15.8333C6.33338 16.1829 6.61712 16.4666 6.96669 16.4666H18.3667C18.7163 16.4666 19 16.1829 19 15.8333C19 15.4837 18.7163 15.2 18.3667 15.2H6.96669Z" fill="#DC2E3F"/>
<path d="M27.8667 15.8333C27.8667 16.8808 28.7192 17.7333 29.7667 17.7333C30.8142 17.7333 31.6667 16.8808 31.6667 15.8333C31.6667 14.7858 30.8142 13.9333 29.7667 13.9333C28.7192 13.9333 27.8667 14.7858 27.8667 15.8333ZM30.4 15.8333C30.4 16.1823 30.1157 16.4666 29.7667 16.4666C29.4177 16.4666 29.1334 16.1823 29.1334 15.8333C29.1334 15.4843 29.4177 15.2 29.7667 15.2C30.1157 15.2 30.4 15.4843 30.4 15.8333Z" fill="#DC2E3F"/>
<path d="M22.8 25.9667C22.8 27.0142 23.6525 27.8667 24.7 27.8667C25.7475 27.8667 26.6 27.0142 26.6 25.9667C26.6 24.9192 25.7475 24.0667 24.7 24.0667C23.6525 24.0667 22.8 24.9192 22.8 25.9667ZM25.3333 25.9667C25.3333 26.3157 25.049 26.6 24.7 26.6C24.351 26.6 24.0667 26.3157 24.0667 25.9667C24.0667 25.6177 24.351 25.3334 24.7 25.3334C25.049 25.3333 25.3333 25.6177 25.3333 25.9667Z" fill="#DC2E3F"/>
<path d="M22.8 15.8333C22.8 16.8808 23.6525 17.7333 24.7 17.7333C25.7475 17.7333 26.6 16.8808 26.6 15.8333C26.6 14.7858 25.7475 13.9333 24.7 13.9333C23.6525 13.9333 22.8 14.7858 22.8 15.8333ZM25.3333 15.8333C25.3333 16.1823 25.049 16.4666 24.7 16.4666C24.351 16.4666 24.0667 16.1823 24.0667 15.8333C24.0667 15.4843 24.351 15.2 24.7 15.2C25.049 15.2 25.3333 15.4843 25.3333 15.8333Z" fill="#DC2E3F"/>
</svg>
