<svg width="69" height="22" viewBox="0 0 69 22" fill="none" xmlns="http://www.w3.org/2000/svg">
<g clip-path="url(#clip0_1_1499)">
<path d="M29.4355 21.6593H23.9329L27.3746 0.385498H32.877L29.4355 21.6593Z" fill="#00579F"/>
<path d="M49.3832 0.905709C48.2978 0.475264 46.5764 0 44.4478 0C39.0137 0 35.1871 2.8967 35.1636 7.03812C35.1185 10.0936 37.9033 11.7908 39.9862 12.8096C42.1151 13.8506 42.8388 14.5301 42.8388 15.4581C42.8171 16.8833 41.1185 17.5402 39.5343 17.5402C37.3373 17.5402 36.1602 17.2015 34.3713 16.4086L33.6467 16.0687L32.8767 20.8442C34.1673 21.432 36.5451 21.9536 39.0137 21.9764C44.7875 21.9764 48.5464 19.1246 48.5909 14.7112C48.6129 12.2895 47.1424 10.4338 43.972 8.91751C42.0474 7.94413 40.8688 7.28778 40.8688 6.29183C40.8913 5.38642 41.8657 4.45906 44.0382 4.45906C45.8271 4.41364 47.1415 4.84348 48.1372 5.27362L48.6349 5.49952L49.3832 0.905709Z" fill="#00579F"/>
<path d="M56.6968 14.1227C57.1499 12.9006 58.8937 8.1705 58.8937 8.1705C58.8708 8.21592 59.3459 6.92579 59.6177 6.13379L60.0022 7.96686C60.0022 7.96686 61.0443 13.0591 61.2705 14.1227C60.4106 14.1227 57.7836 14.1227 56.6968 14.1227ZM63.4891 0.385498H59.2328C57.9202 0.385498 56.923 0.76992 56.3567 2.15059L48.1832 21.659H53.957C53.957 21.659 54.9076 19.0333 55.1119 18.4678C55.7453 18.4678 61.362 18.4678 62.1769 18.4678C62.3348 19.2147 62.8334 21.659 62.8334 21.659H67.9284L63.4891 0.385498Z" fill="#00579F"/>
<path d="M19.3368 0.385498L13.9479 14.8922L13.359 11.9501C12.3627 8.55522 9.23812 4.86682 5.75122 3.03284L10.6873 21.6367H16.5062L25.1555 0.385498H19.3368Z" fill="#00579F"/>
<path d="M8.94384 0.385498H0.0905728L0 0.815341C6.9061 2.58074 11.4799 6.83615 13.359 11.951L11.4344 2.17375C11.1176 0.81504 10.1439 0.430317 8.94384 0.385498Z" fill="#FAA61A"/>
</g>
<defs>
<clipPath id="clip0_1_1499">
<rect width="68.3158" height="22" fill="white"/>
</clipPath>
</defs>
</svg>
