<svg width="113" height="24" viewBox="0 0 113 24" fill="none" xmlns="http://www.w3.org/2000/svg">
<g clip-path="url(#clip0_1_1509)">
<path d="M109.499 6.60767L106.88 13.1393C106.805 13.2152 106.805 13.3671 106.805 13.4431L106.73 13.595L106.655 13.4431C106.655 13.3671 106.58 13.2152 106.58 13.1393L103.96 6.60767H100.593L105.008 17.7722L103.137 22.0254H106.505L112.717 6.60767H109.499Z" fill="#343434"/>
<path d="M84.6502 7.21531C84.0514 6.75962 83.3028 6.45584 82.4048 6.37988C80.9076 6.228 79.4856 6.75962 78.5125 7.74697V6.53177H75.4438V17.6963H78.5125V11.8482C78.5125 10.5571 78.7374 10.1773 78.9619 9.87356C79.3362 9.26594 80.0096 8.96217 80.8329 8.96217C81.6562 8.96217 82.4048 9.3419 82.7787 9.94948C83.0036 10.4052 83.0783 11.0128 83.0783 11.3166C83.0783 12.3039 83.0783 17.6963 83.0783 17.6963H86.1469V10.9368C86.1469 9.19002 85.6979 7.97482 84.6502 7.21531Z" fill="#343434"/>
<path d="M69.6812 6.68361C68.184 6.15196 66.5375 6.22792 65.0407 6.91146C64.0676 7.36716 63.1696 8.12666 62.6455 9.11398C62.1218 9.94944 61.897 11.0127 61.897 12.152C61.897 13.2912 62.1218 14.3545 62.6455 15.1899C63.1696 16.0254 63.8431 16.7849 64.7411 17.2406C65.6395 17.6963 66.6873 18.0001 67.6603 18.0001C68.184 18.0001 68.7081 17.9241 69.2318 17.7722C69.6812 17.6203 70.1302 17.4684 70.5792 17.2406C71.4772 16.7089 72.2258 16.0254 72.6748 15.1899C73.1988 14.3545 73.4233 13.2912 73.4233 12.152C73.4233 9.64563 72.0013 7.51904 69.6812 6.68361ZM70.5045 12.3038C70.4294 13.2912 70.1302 14.1267 69.5314 14.6583C69.0824 15.0381 68.4085 15.2659 67.5853 15.3418C66.762 15.3418 66.1632 15.114 65.6395 14.6583C65.0407 14.1267 64.7411 13.2912 64.6664 12.3038C64.5917 11.1646 65.0407 10.2532 65.864 9.64563C66.313 9.34182 66.9118 9.11398 67.5106 9.11398C68.184 9.11398 68.7081 9.34182 69.2318 9.64563C70.1302 10.1773 70.5792 11.1646 70.5045 12.3038Z" fill="#343434"/>
<path d="M58.3046 7.21511C57.7059 6.75941 56.9573 6.4556 56.0593 6.37964C55.9095 6.37964 55.685 6.37964 55.5352 6.37964C54.3376 6.37964 53.2898 6.9113 52.3918 7.97457L52.2421 8.20242H51.9425C51.718 7.82269 51.4188 7.51888 51.1192 7.29103C50.5204 6.83533 49.7722 6.53156 48.8738 6.4556C47.4518 6.30371 46.3293 6.75941 45.3562 7.82269V6.68345H42.2875V17.848H45.3562V11.9999V11.848C45.3562 10.6328 45.506 10.329 45.7305 9.94928C46.1048 9.34166 46.7783 8.96193 47.5268 9.03789C48.275 9.03789 48.9489 9.41762 49.3232 10.0252C49.6224 10.4809 49.6224 11.0126 49.6224 11.5442V17.7721H52.6911V11.7721C52.6911 10.6328 52.8408 10.253 53.0653 9.87332C53.4396 9.26573 54.1131 8.96192 54.8617 8.96192C55.6099 8.96192 56.2087 9.34166 56.583 9.94928C56.8075 10.329 56.8826 10.7847 56.8826 11.0885C56.8826 11.2404 56.8826 11.3923 56.8826 11.4682V17.6961H59.9512V10.8607C59.9512 10.253 59.8761 9.64547 59.7267 9.11381C59.4271 8.35434 58.9781 7.6708 58.3046 7.21511Z" fill="#343434"/>
<path d="M97.6729 14.3544C97.2239 14.8101 96.1761 15.6455 94.7541 15.7215C93.5565 15.7974 92.6585 15.4177 91.9846 14.7342C91.6854 14.4303 91.4609 13.9746 91.3111 13.519H99.7689V13.443C99.8436 12.9873 99.9183 12.6076 99.9183 12.1519C99.9183 11.7721 99.8436 11.2405 99.6938 10.5569C99.3195 9.26581 98.5713 8.27846 97.5982 7.51895C96.4754 6.68352 95.4276 6.45568 95.1284 6.45568C92.9577 6.07594 90.4879 7.06326 89.2156 9.11389C88.3172 10.5569 88.3923 12 88.3923 12.4557C88.3923 12.9873 88.467 14.6582 89.8144 16.1772C91.3862 17.924 93.5565 18 94.23 18.0759C97.2239 18.1519 99.2448 16.2531 99.6938 15.8734L97.6729 14.3544ZM92.434 9.64554C92.883 9.34173 93.4067 9.11389 94.0806 9.11389C94.7541 9.11389 95.2782 9.34173 95.8019 9.64554C96.2509 10.0253 96.6252 10.481 96.8497 11.0126H91.4609C91.6107 10.481 91.9099 9.94935 92.434 9.64554Z" fill="#343434"/>
<path d="M21.481 0C14.8946 0 9.6554 5.39242 9.6554 12C9.6554 18.6835 14.9694 24 21.481 24C27.9926 24 33.3066 18.6076 33.3066 12C33.3066 5.39242 27.9926 0 21.481 0ZM21.481 16.4051C19.0859 16.4051 17.0651 14.3544 17.0651 11.924C17.0651 9.49368 19.0859 7.44305 21.481 7.44305C23.876 7.44305 25.8969 9.49368 25.8969 11.924C25.822 14.4304 23.876 16.4051 21.481 16.4051Z" fill="#9B00FE"/>
<path d="M9.58022 3.41772V20.8861H5.38886L0 3.41772H9.58022Z" fill="#9B00FE"/>
</g>
<defs>
<clipPath id="clip0_1_1509">
<rect width="113" height="24" fill="white"/>
</clipPath>
</defs>
</svg>
